<svg width="500" height="500" viewBox="0 0 500 500" fill="none" xmlns="http://www.w3.org/2000/svg">
<path d="M26 19H116C146.928 19 172 44.0721 172 75V241H82C51.0721 241 26 215.928 26 185V19Z" fill="white"/>
<path d="M475 19H385C354.072 19 329 44.0721 329 75V241H419C449.928 241 475 215.928 475 185V19Z" fill="white"/>
<rect x="172" y="241" width="157" height="140" fill="white"/>
<path d="M250.5 478L329 381H172L250.5 478Z" fill="white"/>
<path d="M207.824 424.679C209.057 425.935 210.191 427.347 211.472 428.486C211.805 428.782 212.103 429.112 212.372 429.47C213.74 431.284 214.382 433.789 215.169 435.91C215.389 436.264 215.606 436.618 215.819 436.972C217.618 439.951 219.649 442.725 221.903 445.375C223.569 447.334 225.568 448.967 227.306 450.861L227.446 451.014C227.751 451.346 228.054 451.677 228.357 452.005C229.94 453.382 231.529 454.753 233.111 456.125C233.966 456.866 234.931 457.431 235.736 458.236C236.188 458.688 236.563 459.37 237.072 459.788C237.445 460.015 237.654 460.146 237.361 459.986C237.26 459.931 237.163 459.864 237.072 459.788C236.49 459.435 235.51 458.851 235.417 458.778C232.785 456.723 230.582 454.42 228.357 452.005C226.879 450.722 225.406 449.434 223.944 448.139C220.265 444.879 217.425 441.308 215.5 436.75C215.385 436.479 215.276 436.198 215.169 435.91C213.07 432.531 210.69 429.159 208.111 426.167C205.932 423.637 202.757 421.883 200.25 419.694C198.87 418.49 197.652 417.139 196.618 415.66C195.42 413.949 194.467 412.067 193.792 410.042C193.201 408.271 192.745 406.456 192.153 404.681C191.684 403.275 194.661 406.183 194.889 406.403C198.549 409.934 201.206 414.771 204 419C205.274 420.928 206.463 422.847 207.824 424.679Z" fill="white"/>
<path d="M187.5 398.5C187.5 401.523 189.027 404.466 190.375 407.125C192.048 410.425 193.998 413.502 196.889 415.889C199.763 418.261 202.596 420.74 205.681 422.833C207.865 424.316 209.492 426.726 211.472 428.486C213.722 430.486 214.376 434.09 215.5 436.75C217.425 441.308 220.265 444.879 223.944 448.139C226.973 450.822 230.052 453.474 233.111 456.125C233.966 456.866 234.931 457.431 235.736 458.236C236.269 458.769 236.696 459.624 237.361 459.986C238.111 460.395 235.57 458.897 235.417 458.778C232.372 456.401 229.902 453.691 227.306 450.861C225.568 448.967 223.569 447.334 221.903 445.375C219.649 442.725 217.618 439.951 215.819 436.972C213.567 433.242 210.96 429.473 208.111 426.167C205.932 423.637 202.757 421.883 200.25 419.694C197.273 417.095 195.05 413.816 193.792 410.042C193.201 408.271 192.745 406.456 192.153 404.681C191.684 403.275 194.661 406.183 194.889 406.403C198.549 409.934 201.206 414.771 204 419C205.737 421.629 207.317 424.242 209.389 426.639C210.23 427.612 211.169 429.234 212.5 429.5" stroke="white" stroke-width="5" stroke-linecap="round"/>
<path d="M205.591 430.659C205.371 430.318 205.146 429.981 204.916 429.646C204.538 429.094 204.159 428.546 203.775 428.003C202.34 426.373 200.825 424.803 199.479 423.108C199.378 422.98 199.006 422.435 199.402 422.764C199.738 423.042 200.01 423.366 200.309 423.681C201.59 425.029 202.704 426.492 203.775 428.003C204.627 428.972 205.451 429.963 206.194 431.014C206.254 431.099 207.049 432.167 206.5 431.59C206.201 431.276 205.897 430.966 205.591 430.659Z" fill="white"/>
<path d="M204.687 434.625C204.345 434.607 204.066 434.326 203.819 434.118C202.496 433.004 201.207 431.897 199.784 430.906C198.509 430.018 197.453 429.101 196.534 427.847C195.503 426.441 194.535 424.987 193.524 423.566C192.735 422.456 191.817 421.447 191.055 420.316C190.951 420.161 190.763 419.886 191.083 420.146C192.298 421.133 193.468 422.214 194.628 423.264C196.496 424.954 198.358 426.623 200.277 428.257C202.419 430.08 204.408 432.072 206.548 433.896C206.55 433.897 207.716 434.856 207.708 434.681C207.692 434.319 207.358 433.776 207.218 433.497C206.549 432.152 205.766 430.883 204.916 429.646C203.483 427.558 202.05 425.514 200.309 423.681C200.01 423.366 199.738 423.042 199.402 422.764C199.006 422.435 199.378 422.98 199.479 423.108C201.625 425.811 204.201 428.194 206.194 431.014C206.254 431.099 207.049 432.167 206.5 431.59C204.772 429.776 202.905 428.086 201.069 426.382C199.645 425.06 198.154 423.828 196.836 422.396C195.754 421.219 194.731 419.983 193.68 418.778C192.781 417.746 191.928 416.678 190.989 415.681C190.577 415.243 190.19 414.824 189.875 414.313C189.385 413.517 188.777 412.814 188.187 412.097C187.843 411.679 187.501 411.234 187.104 410.865C186.663 410.454 186.848 412.222 186.854 412.299C187.015 414.487 187.64 416.718 188.625 418.688C189.345 420.129 190.064 421.567 190.784 423.007C191.51 424.458 192.375 425.907 192.593 427.524C192.676 428.138 193.033 428.684 193.187 429.281C193.33 429.836 193.603 430.287 193.871 430.778C194.176 431.336 194.509 431.781 194.663 432.413C194.774 432.871 194.98 433.273 195.139 433.701C195.217 433.914 195.344 434.273 195.5 434.438C195.854 434.813 196.305 435.31 196.486 435.799C196.561 436.001 196.802 436.114 196.889 436.326C197.011 436.626 197.275 437.014 197.5 437.25C198.234 438.023 198.81 438.935 199.562 439.688" stroke="white" stroke-width="5" stroke-linecap="round"/>
<path d="M204.687 440.75C204.09 440.152 203.617 439.478 203.048 438.854C200.936 436.536 198.461 434.496 196.673 431.896C196.068 431.015 195.536 430.085 194.955 429.188C194.695 428.788 195.372 429.443 195.43 429.493C196.374 430.298 197.362 431.01 198.437 431.625" stroke="white" stroke-width="5" stroke-linecap="round"/>
<path d="M209.365 437.751C209.362 435.64 209.147 433.56 208.43 431.556C208.318 431.241 208.033 430.563 207.869 430.181C207.842 430.123 207.816 430.065 207.791 430.007C207.704 429.801 207.76 429.924 207.869 430.181C208.098 430.659 208.422 431.121 208.68 431.569C209.526 433.038 210.358 434.514 211.173 436C211.74 437.034 212.225 438.133 212.889 439.111L212.904 439.133C213.151 439.498 213.413 439.884 213.597 440.285C213.656 440.414 213.469 440.352 213.416 440.333C212.883 440.148 212.408 439.783 211.951 439.465C211.101 438.875 210.235 438.31 209.365 437.751Z" fill="white"/>
<path d="M209.125 440.313C209.299 440.448 209.359 438.417 209.361 438.319C209.397 436.014 209.211 433.74 208.43 431.556C208.242 431.03 207.575 429.492 207.791 430.007C208.019 430.547 208.391 431.067 208.68 431.569C209.526 433.038 210.358 434.514 211.173 436C211.74 437.034 212.225 438.133 212.889 439.111C213.14 439.482 213.409 439.876 213.597 440.285C213.656 440.414 213.469 440.352 213.416 440.333C212.883 440.148 212.408 439.783 211.951 439.465C209.982 438.097 207.925 436.87 205.944 435.521C205.534 435.241 205.141 434.89 204.694 434.667C204.153 434.396 204.571 435.612 204.6 435.705C204.987 436.942 205.696 438.416 206.712 439.264C207.186 439.66 207.726 440.003 208.246 440.337C208.641 440.591 209.114 440.742 209.569 440.844C210.184 440.982 210.801 441.259 211.43 441.306C212.055 441.352 212.689 441.315 213.316 441.344C213.496 441.352 214.606 441.334 214.562 441.313" stroke="white" stroke-width="5" stroke-linecap="round"/>
<path d="M189.89 414.088C189.819 413.855 189.751 413.622 189.674 413.396C189.376 412.529 189.065 411.655 188.73 410.79C188.663 410.663 188.595 410.536 188.528 410.41C187.759 408.97 186.958 407.484 186.448 405.927C186.374 405.703 186.312 405.473 186.312 405.236C186.312 405.001 186.482 405.674 186.576 405.889L186.591 405.921C186.941 406.717 187.289 407.51 187.663 408.295C188.049 409.106 188.401 409.943 188.73 410.79C189.601 412.441 190.453 414.152 191.486 415.701C191.919 416.351 190.608 414.916 189.89 414.088Z" fill="white"/>
<path d="M190.188 414.938C189.974 414.445 189.848 413.903 189.674 413.396C189.085 411.68 188.442 409.933 187.663 408.295C187.284 407.499 186.931 406.696 186.576 405.889C186.482 405.674 186.312 405.001 186.312 405.236C186.312 405.473 186.374 405.703 186.448 405.927C186.958 407.484 187.759 408.97 188.528 410.41C189.471 412.177 190.374 414.033 191.486 415.701C191.981 416.444 190.197 414.462 189.625 413.778C188.902 412.912 188.214 412.011 187.535 411.111C187.199 410.666 186.914 410.225 186.698 409.712C186.481 409.196 186.16 408.703 185.826 408.25C185.599 407.942 185.454 407.586 185.344 407.222C185.199 406.744 184.97 406.29 184.812 405.812C184.517 404.917 184.413 404.017 184.264 403.09C184.189 402.622 184.062 402.164 184.062 401.688" stroke="white" stroke-width="5" stroke-linecap="round"/>
<path d="M183.722 397.793C183.739 397.455 183.75 397.117 183.75 396.778C183.75 396.409 183.713 396.019 183.753 395.653C183.761 395.586 183.83 395.764 183.854 395.826C184.075 396.398 184.339 396.945 184.597 397.5C184.826 397.99 185.036 398.489 185.278 398.972C185.3 399.017 185.848 399.893 185.802 399.948C185.774 399.981 184.264 398.427 184.153 398.299C184.008 398.132 183.864 397.963 183.722 397.793C183.244 397.221 182.784 396.628 182.368 396.014C181.44 394.645 180.447 393.283 179.747 391.778C179.24 390.689 178.354 389.784 177.656 388.813C177.219 388.205 176.748 387.6 176.379 386.944C176.275 386.757 176.179 386.567 176.094 386.372C175.927 385.986 175.705 385.644 175.628 385.222C175.556 384.823 176.041 385.594 176.09 385.684C176.262 385.996 176.348 386.493 176.372 386.84C176.374 386.875 176.377 386.909 176.379 386.944C176.748 387.6 177.219 388.205 177.656 388.813C178.354 389.784 179.24 390.689 179.747 391.778C180.447 393.283 181.44 394.645 182.368 396.014C182.784 396.628 183.244 397.221 183.722 397.793Z" fill="white"/>
<path d="M178.125 393.25C178.598 394.969 179.487 396.463 180.375 397.997C180.984 399.049 181.668 400.139 182.434 401.08C182.613 401.3 182.948 401.833 183.222 401.944C183.492 402.054 183.562 400.217 183.566 400.153C183.629 399.026 183.75 397.908 183.75 396.778C183.75 396.409 183.713 396.019 183.753 395.653C183.761 395.586 183.83 395.764 183.854 395.826C184.075 396.398 184.339 396.945 184.597 397.5C184.826 397.99 185.036 398.489 185.278 398.972C185.3 399.017 185.848 399.893 185.802 399.948C185.774 399.981 184.264 398.427 184.153 398.299C183.522 397.571 182.908 396.811 182.368 396.014C181.44 394.645 180.447 393.283 179.747 391.778C179.24 390.689 178.354 389.784 177.656 388.813C177.095 388.032 176.477 387.256 176.094 386.372C175.927 385.986 175.705 385.644 175.628 385.222C175.556 384.823 176.041 385.594 176.09 385.684C176.262 385.996 176.348 386.493 176.372 386.84C176.408 387.374 176.503 387.905 176.563 388.438C176.677 389.472 176.651 390.593 176.938 391.597C177.096 392.151 177.192 392.74 177.264 393.313C177.329 393.832 177.494 394.335 177.549 394.854C177.657 395.887 177.923 396.859 178.25 397.84C178.379 398.227 178.596 398.656 178.674 399.049C178.715 399.261 178.802 399.454 178.847 399.667C178.914 399.983 178.912 400.319 179.014 400.625C179.182 401.129 179.233 401.605 179.299 402.125C179.379 402.761 179.693 403.319 179.847 403.938C180.184 405.284 180.55 406.569 181.188 407.813C181.508 408.437 181.714 409.095 181.986 409.743C182.364 410.643 182.911 411.474 183.299 412.375C183.859 413.677 184.738 414.839 185.438 416.063" stroke="white" stroke-width="5" stroke-linecap="round"/>
<path d="M172.5 381L173 386L173.5 390L176 402L178.5 410L181.5 417L183 420L184.5 423L185.5 425L187 427.5L189 430.5L192 435L195 439L197.5 442L204.891 449.891L210 455L214.5 459L220.5 463.5L226.5 467.5L231.5 470.5V470.5C235.827 472.83 240.33 474.815 244.968 476.439L248 477.5L250.5 478" stroke="white"/>
<path d="M276.624 456.72C275.297 457.376 273.949 457.976 272.514 458.434C271.759 458.675 271.082 459.008 270.368 459.347C269.695 459.668 269.111 460.096 268.462 460.448C267.753 460.832 269.643 459.325 270.347 458.934C272.305 457.848 274.495 457.36 276.624 456.72C277.141 456.564 277.654 456.4 278.16 456.215C278.32 456.157 278.689 455.891 278.646 456.056C278.55 456.422 278.199 456.848 277.993 457.146C277.962 457.192 277.929 457.238 277.897 457.283C278.015 457.238 278.119 457.198 278.174 457.181C278.233 457.161 278.344 457.121 278.361 457.181C278.444 457.469 277.995 458.126 277.882 458.333C277.345 459.322 276.691 460.187 275.92 460.997C276.104 460.904 276.288 460.813 276.472 460.722C276.646 460.637 276.819 460.552 276.993 460.468C277.401 459.88 278.032 459.401 278.594 459.014C278.959 458.763 279.337 458.533 279.725 458.321C279.912 458.113 280.096 457.904 280.281 457.695C280.374 457.59 280.469 457.482 280.389 457.691C280.343 457.812 280.294 457.932 280.244 458.051C281.39 457.484 282.614 457.055 283.855 456.681C284.168 456.065 284.647 455.506 285.125 455.028C285.828 454.325 286.794 454.069 287.594 453.5C287.808 453.348 288.038 453.206 288.246 453.042C288.351 452.931 288.456 452.822 288.563 452.715C288.86 452.418 288.461 452.858 288.375 452.934C288.333 452.971 288.29 453.007 288.246 453.042C287.903 453.406 287.571 453.79 287.25 454.167C286.691 454.825 286.002 455.473 285.535 456.204C285.535 456.204 285.535 456.204 285.535 456.204C285.923 455.901 286.315 455.604 286.726 455.33C287.195 455.017 287.69 454.772 288.199 454.546C288.399 454.379 288.594 454.21 288.778 454.035C290.182 452.702 291.363 451.156 292.688 449.736C292.91 449.498 295.6 446.555 295.632 446.597C295.736 446.733 295.182 447.484 295.125 447.57C294.829 448.018 294.499 448.447 294.174 448.875C293.521 449.735 292.82 450.535 292.195 451.417C291.591 452.268 290.934 453.096 290.063 453.674C289.639 453.955 289.094 454.161 288.625 454.361C288.482 454.422 288.34 454.483 288.199 454.546C287.666 454.992 287.099 455.425 286.605 455.915C286.849 455.848 287.092 455.782 287.334 455.715C287.432 455.687 287.531 455.66 287.629 455.632C287.722 455.606 288.422 455.306 288.275 455.698C288.051 456.291 287.558 456.818 287.111 457.25C286.709 457.639 286.107 458.255 285.528 458.396C285.258 458.461 285.413 457.748 285.445 457.656C285.601 457.197 285.842 456.798 286.132 456.436C285.862 456.568 285.506 456.711 285.295 456.594C285.249 456.568 285.328 456.54 285.344 456.524C285.419 456.449 285.455 456.332 285.511 456.243C285.519 456.23 285.527 456.217 285.535 456.205C284.978 456.64 284.431 457.086 283.851 457.49C283.608 457.659 283.625 457.345 283.669 457.141C282.876 458.52 281.608 459.708 280.401 460.76C279.362 461.744 278.261 462.658 277.16 463.576C277.002 463.709 276.66 464.137 276.653 463.931C276.645 463.675 276.93 463.271 277.042 463.07C277.565 462.129 278.267 461.365 279.042 460.67C279.253 460.166 279.493 459.674 279.729 459.18C279.175 459.433 278.623 459.69 278.072 459.95C277.823 460.175 277.571 460.396 277.32 460.618C277.186 460.736 276.981 460.986 276.799 461.049C276.652 461.099 276.788 460.814 276.792 460.806C276.85 460.689 276.918 460.577 276.993 460.468C276.819 460.552 276.646 460.637 276.472 460.722C276.288 460.813 276.104 460.904 275.92 460.997C275.853 461.068 275.785 461.138 275.716 461.208C274.448 462.493 273.082 463.761 271.656 464.872C271.536 464.966 270.91 465.466 271.177 464.91C271.52 464.197 272.097 463.575 272.684 463.059C273.65 462.21 274.776 461.576 275.92 460.997C276.691 460.187 277.345 459.322 277.882 458.333C277.995 458.126 278.444 457.469 278.361 457.181C278.344 457.121 278.233 457.161 278.174 457.181C278.119 457.198 278.015 457.238 277.897 457.283C276.393 459.398 274.165 460.985 271.879 462.156C271.799 462.197 269.644 463.278 269.521 463.01C269.476 462.913 269.66 462.696 269.862 462.498C269.869 462.487 269.873 462.479 269.875 462.476C270.424 461.6 271.257 460.897 272.087 460.302C273.391 459.368 274.826 458.618 276.291 457.96C276.696 457.722 277.109 457.5 277.528 457.32L277.528 457.319C277.545 457.312 277.701 457.245 277.653 457.361C277.65 457.368 277.647 457.376 277.643 457.384C277.726 457.351 277.815 457.315 277.897 457.283C277.929 457.238 277.962 457.192 277.993 457.146C278.199 456.848 278.55 456.422 278.646 456.056C278.689 455.891 278.32 456.157 278.16 456.215C277.654 456.4 277.141 456.564 276.624 456.72Z" fill="white"/>
<path d="M299.5 435.125C299.808 435.097 300.116 434.878 300.389 434.75C300.963 434.48 301.477 434.146 302.014 433.813C303.058 433.165 304.016 432.39 305.063 431.75C305.549 431.453 306.028 431.083 306.611 431.125C306.831 431.141 306.987 431.518 307.049 431.688C307.182 432.051 307.135 432.411 306.966 432.75C306.613 433.454 306.11 434.044 305.813 434.788C305.575 435.383 305.463 436.042 305.077 436.563C304.319 437.582 303.703 438.695 303 439.75C302.227 440.909 300.779 441.479 299.722 442.344C299.15 442.812 298.685 443.361 298.174 443.889C297.593 444.489 297.015 445.054 296.375 445.594C295.501 446.331 294.673 447.087 293.75 447.771C293.234 448.154 292.657 448.462 292.132 448.84C291.101 449.584 289.878 450.11 288.743 450.674C285.628 452.22 282.476 453.697 279.389 455.299C277.13 456.471 274.949 457.657 272.514 458.434C271.759 458.675 271.082 459.008 270.368 459.347C269.695 459.668 269.111 460.096 268.462 460.448C267.753 460.832 269.643 459.325 270.347 458.934C272.78 457.584 275.571 457.159 278.16 456.215C278.32 456.157 278.689 455.891 278.646 456.056C278.55 456.422 278.199 456.848 277.993 457.146C276.489 459.33 274.214 460.96 271.879 462.156C271.799 462.197 269.644 463.278 269.521 463.01C269.43 462.813 270.273 462.13 270.309 462.097C271.731 460.806 273.366 459.749 275 458.75C275.807 458.257 276.654 457.695 277.528 457.32C277.544 457.313 277.701 457.245 277.653 457.361C277.6 457.49 277.364 457.764 277.299 457.833C275.582 459.673 273.293 461.15 271.094 462.337C270.703 462.548 270.268 462.84 269.837 462.976C269.498 463.083 269.854 462.51 269.875 462.476C270.424 461.6 271.257 460.897 272.087 460.302C273.695 459.15 275.501 458.278 277.32 457.514C277.391 457.484 278.009 457.234 278.174 457.181C278.233 457.161 278.344 457.121 278.361 457.181C278.444 457.469 277.995 458.126 277.882 458.333C277.298 459.408 276.576 460.337 275.716 461.208C274.448 462.493 273.082 463.761 271.656 464.872C271.536 464.966 270.91 465.466 271.177 464.91C271.52 464.197 272.097 463.575 272.684 463.059C273.806 462.073 275.142 461.377 276.472 460.722C278.411 459.768 280.384 458.87 282.361 458C282.514 457.933 282.908 457.766 282.854 457.924C282.665 458.484 282.098 459.014 281.716 459.431C280.32 460.95 278.74 462.258 277.16 463.576C277.002 463.709 276.66 464.137 276.653 463.931C276.645 463.675 276.93 463.271 277.042 463.07C278.134 461.107 280.004 459.912 281.691 458.51C282.311 457.996 282.894 457.438 283.514 456.924C283.628 456.829 284.026 456.472 283.806 456.892C282.931 458.562 281.337 459.956 279.931 461.167C279.585 461.465 279.101 462.032 278.639 462.174C278.473 462.225 278.829 461.208 278.858 461.132C279.297 459.955 279.939 458.863 280.389 457.691C280.469 457.482 280.374 457.59 280.281 457.695C279.833 458.202 279.39 458.71 278.903 459.181C278.391 459.676 277.854 460.147 277.32 460.618C277.186 460.736 276.981 460.986 276.799 461.049C276.652 461.099 276.788 460.814 276.792 460.806C277.165 460.06 277.928 459.473 278.594 459.014C281.24 457.19 284.58 456.494 287.629 455.632C287.722 455.606 288.422 455.306 288.275 455.698C288.051 456.291 287.558 456.818 287.111 457.25C286.709 457.639 286.107 458.255 285.528 458.396C285.258 458.461 285.413 457.748 285.445 457.656C285.999 456.032 287.603 455.15 288.778 454.035C290.182 452.702 291.363 451.156 292.688 449.736C292.91 449.498 295.6 446.555 295.632 446.597C295.736 446.733 295.182 447.484 295.125 447.57C294.829 448.018 294.499 448.447 294.174 448.875C293.521 449.735 292.82 450.535 292.195 451.417C291.591 452.268 290.934 453.096 290.063 453.674C289.639 453.955 289.094 454.161 288.625 454.361C287.967 454.642 287.324 454.931 286.726 455.33C285.725 455.997 284.835 456.805 283.851 457.49C283.544 457.703 283.652 457.149 283.705 457.014C283.998 456.266 284.562 455.591 285.125 455.028C285.828 454.325 286.794 454.069 287.594 453.5C287.853 453.316 288.137 453.146 288.375 452.934C288.461 452.858 288.86 452.418 288.563 452.715C288.105 453.173 287.669 453.675 287.25 454.167C286.681 454.836 285.978 455.496 285.511 456.243C285.455 456.332 285.419 456.449 285.344 456.524C285.328 456.54 285.249 456.568 285.295 456.594C285.579 456.752 286.128 456.436 286.375 456.313C286.794 456.103 287.201 455.806 287.587 455.538C287.941 455.293 288.41 455.144 288.813 455C289.268 454.837 289.761 454.71 290.188 454.486C290.562 454.29 290.305 453.979 290.472 453.715C291.082 452.758 292.088 452.165 292.903 451.406C293.553 450.801 294.187 450.188 294.816 449.559C295.244 449.131 295.606 448.637 296.077 448.25C296.412 447.974 296.754 447.684 297.063 447.375C297.542 446.896 297.937 446.215 298.174 445.576C298.396 444.975 299.006 444.448 299.375 443.924C299.544 443.684 299.732 443.448 299.91 443.219C300.01 443.09 300.08 442.939 300.188 442.816C300.28 442.711 300.412 442.403 300.535 442.354C300.615 442.322 300.507 442.526 300.472 442.604C300.364 442.848 300.24 443.085 300.125 443.326C299.931 443.737 299.664 444.079 299.438 444.469C299.208 444.864 299.064 445.31 298.813 445.688" stroke="white" stroke-width="2" stroke-linecap="round"/>
<path d="M186.562 421.125C186.27 421.06 186.175 420.488 186.062 420.25C185.917 419.943 185.815 419.615 185.66 419.312C185.445 418.895 184.986 418.542 184.826 418.111C184.576 417.434 184.41 416.742 184.174 416.062C183.758 414.868 183.502 413.614 183.111 412.41C182.969 411.973 182.666 411.515 182.438 411.111C182.167 410.632 181.932 410.115 181.688 409.625" stroke="white" stroke-width="5" stroke-linecap="round"/>
<path d="M186.875 420.688C187.174 421.016 187.576 421.388 187.812 421.764C188.013 422.082 187.908 422.509 188.125 422.812C188.583 423.453 189.087 424.053 189.375 424.799C189.453 425.001 189.478 425.211 189.514 425.424C189.542 425.589 189.647 425.679 189.701 425.826C189.839 426.197 190.004 426.504 190.281 426.781C190.962 427.462 191.61 428.113 192.125 428.938" stroke="white" stroke-width="5" stroke-linecap="round"/>
<path d="M213.337 446.257C213.916 446.801 214.503 447.33 215.005 447.938C214.889 448.117 214.745 448.249 214.562 448.299C214.023 448.447 213.279 447.95 212.84 447.712C212.218 447.374 211.518 446.978 210.972 446.521C210.471 446.101 210.075 445.635 209.646 445.146C208.348 443.669 206.895 442.304 205.49 440.931C205.464 440.905 204.663 440.283 205.028 440.465C205.228 440.565 205.404 440.725 205.601 440.816C206.221 441.102 206.784 441.555 207.347 441.931C209.375 443.284 211.553 444.583 213.337 446.257Z" fill="white"/>
<path d="M200.687 436.375C200.638 437.363 200.671 438.217 201.125 439.125C201.286 439.448 201.4 439.813 201.497 440.16C201.598 440.525 201.537 440.895 201.687 441.25C201.871 441.682 201.752 442.138 202.035 442.549C202.315 442.955 202.654 443.341 203.003 443.691C203.444 444.132 203.747 444.685 204.187 445.125C204.852 445.789 205.488 446.467 206.174 447.111C207.338 448.205 208.662 449.202 210.014 450.056C211.322 450.882 212.674 451.71 214.108 452.302C214.586 452.5 215.603 452.988 216.056 452.479C216.292 452.213 216.318 451.794 216.326 451.458C216.35 450.505 216.084 449.588 215.597 448.771C215.009 447.783 214.165 447.034 213.337 446.257C211.553 444.583 209.375 443.284 207.347 441.931C206.784 441.555 206.221 441.102 205.601 440.816C205.404 440.725 205.228 440.565 205.028 440.465C204.663 440.283 205.464 440.905 205.49 440.931C206.895 442.304 208.348 443.669 209.646 445.146C210.075 445.635 210.471 446.101 210.972 446.521C211.518 446.978 212.218 447.374 212.84 447.712C213.279 447.95 214.023 448.447 214.562 448.299C215.372 448.076 215.444 446.25 215.476 445.667C215.534 444.578 215.495 443.215 214.781 442.316C214.623 442.116 214.106 441.554 214.292 441.729C214.622 442.041 214.922 442.39 215.215 442.736C216.411 444.146 217.582 445.574 218.788 446.976C220.237 448.66 221.687 450.343 223.118 452.042C223.221 452.164 223.729 453.044 223.812 452.625" stroke="white" stroke-width="5" stroke-linecap="round"/>
<path d="M215.625 447.438C215.199 448.237 216.098 449.555 216.493 450.188C217.477 451.766 218.857 453.043 220.337 454.149C221.832 455.268 223.385 456.303 224.868 457.438C225.835 458.178 226.841 458.866 227.84 459.562C228.804 460.235 229.73 460.962 230.802 461.458C231.328 461.702 231.838 461.989 232.368 462.222C232.96 462.483 233.59 462.655 234.187 462.91C235.244 463.362 236.244 463.715 237.194 464.368C238.296 465.126 239.393 465.872 240.458 466.681C240.604 466.791 240.999 467.062 240.625 467.062" stroke="white" stroke-width="5" stroke-linecap="round"/>
<path d="M249.881 474.748C249.941 474.82 249.976 474.868 249.962 474.868C249.796 474.868 249.621 474.733 249.46 474.593C247.91 474.004 246.429 473.251 244.889 472.611C243.844 472.177 242.706 471.954 241.625 471.625C241.009 471.438 240.484 471.134 239.924 470.826C239.141 470.398 238.298 470.076 237.542 469.597C236.421 468.888 235.313 468.181 234.125 467.576C233.195 467.103 232.249 466.656 231.312 466.188C230.726 465.894 230.177 465.53 229.576 465.264C229.162 465.081 228.823 464.763 228.399 464.59C227.29 464.138 226.35 463.392 225.312 462.816C224.894 462.583 224.46 462.426 224.062 462.156C223.716 461.921 223.406 461.633 223.076 461.375C222.207 460.694 221.355 459.992 220.437 459.375C219.728 458.898 219.1 458.417 218.437 457.875C217.707 457.278 216.889 456.753 216.191 456.125C214.938 454.997 213.426 454.148 212.25 452.938C211.496 452.161 210.948 451.206 210.156 450.454C210.07 450.392 209.986 450.329 209.903 450.264C209.568 450.001 209.193 449.803 208.858 449.542C208.639 449.372 209.338 449.816 209.566 449.972C209.779 450.119 209.974 450.281 210.156 450.454C210.601 450.773 211.079 451.054 211.514 451.389C211.977 451.745 212.449 452.096 212.927 452.431C213.713 452.981 214.482 453.594 215.236 454.188C216.74 455.372 218.311 456.483 219.875 457.59C221.578 458.795 223.409 459.812 225.097 461.035C226.801 462.27 228.569 463.484 230.437 464.462C232.86 465.73 235.305 466.932 237.76 468.128C238.838 468.654 239.858 469.288 240.934 469.809C241.531 470.098 242.202 470.355 242.743 470.743C243.253 471.109 243.823 471.456 244.378 471.75C244.908 472.03 245.368 472.428 245.875 472.75C246.276 473.005 246.796 473.069 247.187 473.326C247.474 473.515 247.867 473.653 248.187 473.778C248.536 473.914 248.821 474.129 249.139 474.326C249.232 474.385 249.343 474.49 249.46 474.593C249.6 474.646 249.74 474.698 249.881 474.748Z" fill="white"/>
<path d="M224.625 452.563C225.565 452.563 226.526 453.613 227.239 454.115C227.611 454.376 228.037 454.577 228.375 454.882C228.838 455.299 229.26 455.771 229.674 456.236C230.315 456.956 230.814 457.747 231.538 458.385C232.842 459.535 234.112 460.763 235.305 462.024C236.438 463.221 237.742 464.229 238.875 465.424C239.584 466.171 240.357 466.812 241.121 467.497C241.59 467.916 242.092 468.278 242.625 468.611C243.465 469.136 244.105 469.813 244.861 470.438C245.927 471.318 246.895 472.355 248.062 473.111C248.503 473.397 248.871 473.715 249.257 474.066C249.325 474.128 250.016 474.868 249.962 474.868C249.676 474.868 249.36 474.464 249.139 474.326C248.821 474.129 248.536 473.914 248.187 473.778C247.867 473.653 247.474 473.515 247.187 473.326C246.796 473.069 246.276 473.005 245.875 472.75C245.368 472.428 244.908 472.03 244.378 471.75C243.823 471.456 243.253 471.109 242.743 470.743C242.202 470.355 241.531 470.098 240.934 469.809C239.858 469.288 238.838 468.654 237.76 468.128C235.305 466.932 232.86 465.73 230.437 464.462C228.569 463.484 226.801 462.27 225.097 461.035C223.409 459.812 221.578 458.795 219.875 457.59C218.311 456.483 216.74 455.372 215.236 454.188C214.482 453.594 213.713 452.981 212.927 452.431C212.449 452.096 211.977 451.745 211.514 451.389C210.995 450.989 210.415 450.666 209.903 450.264C209.568 450.001 209.193 449.803 208.858 449.542C208.639 449.372 209.338 449.816 209.566 449.972C210.707 450.757 211.323 451.983 212.25 452.938C213.426 454.148 214.938 454.997 216.191 456.125C216.889 456.753 217.707 457.278 218.437 457.875C219.1 458.417 219.728 458.898 220.437 459.375C221.355 459.992 222.207 460.694 223.076 461.375C223.406 461.633 223.716 461.921 224.062 462.156C224.46 462.426 224.894 462.583 225.312 462.816C226.35 463.392 227.29 464.138 228.399 464.59C228.823 464.763 229.162 465.081 229.576 465.264C230.177 465.53 230.726 465.894 231.312 466.188C232.249 466.656 233.195 467.103 234.125 467.576C235.313 468.181 236.421 468.888 237.542 469.597C238.298 470.076 239.141 470.398 239.924 470.826C240.484 471.134 241.009 471.438 241.625 471.625C242.706 471.954 243.844 472.177 244.889 472.611C246.688 473.359 248.408 474.261 250.25 474.875" stroke="white" stroke-width="5" stroke-linecap="round"/>
<path d="M252 475.438C252.069 475.715 254.126 473.988 254.226 473.903C257.297 471.298 260.208 468.55 263.014 465.66C264.059 464.583 264.997 463.432 265.969 462.292C267.195 460.851 268.493 459.478 269.701 458.021C271.18 456.238 272.518 454.362 273.875 452.486C274.917 451.045 276.11 449.746 277.229 448.361C277.841 447.604 278.475 446.86 279.035 446.062C279.487 445.418 280.005 444.736 280.299 444C280.624 443.183 281.11 442.487 281.465 441.691C281.649 441.279 281.772 440.849 282.062 440.5" stroke="white" stroke-width="5" stroke-linecap="round"/>
<path d="M277.25 432.188C277.313 431.936 278.563 432.583 278.781 432.684C279.138 432.849 279.419 432.879 279.812 432.924C280.651 433.018 281.227 432.763 281.969 432.438C282.981 431.993 283.949 431.494 284.938 431C287.258 429.84 288.9 427.805 290.812 426.111C291.575 425.436 292.35 424.78 293.184 424.191C293.236 424.154 293.724 423.711 293.75 423.757C293.999 424.196 293.79 425.107 293.688 425.563C293.427 426.715 293.056 427.836 292.625 428.938C292.317 429.724 291.984 430.629 291.528 431.337C290.381 433.116 288.62 434.442 287.156 435.938C286.377 436.734 285.464 437.403 284.486 437.938C283.612 438.415 282.679 438.953 281.969 439.663C281.197 440.435 280.456 441.191 279.625 441.903C278.964 442.468 278.297 443.026 277.635 443.59C277.488 443.716 277.396 443.938 277.188 443.938" stroke="white" stroke-width="28" stroke-linecap="round"/>
<path d="M289 429.125C289.831 427.983 290.675 426.837 291.406 425.628C292.165 424.375 293.091 423.099 294.226 422.156C295.11 421.422 296.043 420.751 296.924 420.014C297.706 419.359 298.387 418.586 299.177 417.948C300.008 417.277 300.515 416.272 301 415.337C301.249 414.856 301.408 414.346 301.691 413.875C302.023 413.322 302.411 412.791 302.764 412.25C303.356 411.343 304.12 410.535 304.736 409.639C305.178 408.997 305.632 408.294 305.938 407.576C306.172 407.026 306.443 406.387 306.75 405.875" stroke="white" stroke-width="28" stroke-linecap="round"/>
<path d="M305.125 405C305.247 404.538 305.578 404.223 305.833 403.826C306.144 403.343 306.454 402.845 306.747 402.351C307.114 401.731 307.506 401.125 307.872 400.503C308.211 399.927 308.595 399.38 308.816 398.743C309.066 398.024 309.424 397.336 309.712 396.632C310.46 394.804 311.188 392.759 311.188 390.764C311.188 389.022 312.125 387.509 312.125 385.781C312.125 385.19 312.201 384.763 312.486 384.25C312.726 383.817 312.818 383.353 312.938 382.875" stroke="white" stroke-width="28" stroke-linecap="round"/>
<path d="M297.937 430.125C297.896 430.118 298.17 429.937 298.201 429.91C298.559 429.604 298.887 429.302 299.278 429.035C299.866 428.632 300.477 428.219 301.153 427.976C301.612 427.81 302.065 427.596 302.528 427.438C303.243 427.193 304.078 426.812 304.847 426.812C305.135 426.812 305.424 426.812 305.712 426.812C305.864 426.812 306.224 426.43 306.382 426.337C307.182 425.864 307.698 425.098 308.281 424.41C308.681 423.937 309.047 423.443 309.424 422.951C309.897 422.333 310.42 421.72 310.812 421.049C311.458 419.944 312.28 418.751 312.594 417.497C312.98 415.95 313.681 414.447 314.312 412.986C314.601 412.317 314.903 411.63 315.146 410.944C315.352 410.36 315.662 409.806 315.75 409.188" stroke="white" stroke-width="11" stroke-linecap="round"/>
<path d="M301.375 434.5C302.795 434.263 303.998 433.704 304.965 432.611C305.311 432.221 306.862 430.414 307.424 431.34C307.816 431.989 307.692 433.077 307.281 433.684C306.957 434.163 306.528 434.563 306.25 435.076C306.013 435.514 305.905 436.005 305.722 436.465C305.508 437.005 305.248 437.518 305.097 438.08C305.015 438.385 304.861 439.051 305.201 438.326C305.859 436.926 306.652 435.431 307.719 434.285C308.111 433.864 308.594 433.426 308.861 432.91C309.198 432.258 309.472 431.58 309.882 430.965C310.288 430.356 310.742 429.779 311.153 429.174C311.543 428.6 311.936 428.023 312.312 427.441C312.567 427.048 312.901 426.727 313.125 426.312C313.296 425.996 313.838 425.25 314.25 425.25" stroke="white" stroke-linecap="round"/>
<path d="M301.377 442.292C301.165 442.632 300.954 442.971 300.764 443.313C300.575 443.653 300.711 443.277 300.826 443.111C300.948 442.936 301.103 442.749 301.201 442.563C301.249 442.472 301.309 442.381 301.377 442.292C301.611 441.983 301.938 441.687 302.188 441.438C302.457 441.168 302.793 440.896 302.986 440.563C303.137 440.303 303.363 440.13 303.535 439.889C303.65 439.728 303.781 439.458 303.969 439.375C304.089 439.322 304.1 439.127 304.219 439.035C304.366 438.92 304.447 438.825 304.569 438.684C304.979 438.215 305.297 437.729 305.597 437.184C305.968 436.509 306.407 435.869 306.812 435.215C307.14 434.688 307.506 434.213 307.801 433.685C307.805 433.666 307.809 433.647 307.812 433.629C307.869 433.348 307.926 433.097 307.969 432.809C307.994 432.637 308.026 432.471 308.066 432.306C308.113 432.114 308.172 431.926 308.247 431.736C308.263 431.693 308.488 431.254 308.497 431.299C308.536 431.518 308.514 431.759 308.46 432.001C308.578 431.907 308.696 431.812 308.812 431.715C309.155 431.432 309.501 431.134 309.868 430.882C309.972 430.811 310.069 430.729 310.163 430.643C310.269 430.477 310.373 430.307 310.472 430.139C310.57 429.974 310.586 429.759 310.701 429.597C310.868 429.364 310.998 429.102 311.153 428.861C311.41 428.462 311.702 428.047 311.924 427.625L311.94 427.594C312.108 427.275 312.294 426.921 312.514 426.625C312.812 426.224 312.989 425.699 313.347 425.34C313.672 425.016 313.896 424.604 314.219 424.281C314.259 424.241 314.438 423.922 314.438 424.094C314.438 424.247 314.357 424.369 314.281 424.504C313.919 425.147 313.687 425.962 313.219 426.535C312.872 426.959 312.694 427.484 312.351 427.903C312.119 428.186 311.913 428.536 311.715 428.847C311.395 429.35 310.923 429.889 310.5 430.313C310.39 430.422 310.279 430.536 310.163 430.643C310.13 430.695 310.096 430.747 310.062 430.799C309.923 431.012 309.595 431.218 309.514 431.451C309.388 431.814 309.172 432.104 308.986 432.438C308.773 432.822 308.47 433.142 308.236 433.514C308.097 433.736 307.863 433.93 307.764 434.174C307.682 434.376 307.618 434.615 307.5 434.799C307.446 434.883 307.382 434.995 307.312 435.123C307.294 435.171 307.275 435.22 307.257 435.267C307.087 435.716 306.911 436.2 306.66 436.611C306.364 437.094 306.919 435.85 307.312 435.123C307.491 434.661 307.698 434.16 307.801 433.685C307.506 434.213 307.14 434.688 306.812 435.215C306.407 435.869 305.968 436.509 305.597 437.184C305.297 437.729 304.979 438.215 304.569 438.684C304.447 438.825 304.366 438.92 304.219 439.035C304.1 439.127 304.089 439.322 303.969 439.375C303.781 439.458 303.65 439.728 303.535 439.889C303.363 440.13 303.137 440.303 302.986 440.563C302.793 440.896 302.457 441.168 302.188 441.438C301.938 441.687 301.611 441.983 301.377 442.292Z" fill="white"/>
<path d="M298.188 445.438C299.143 444.482 299.852 443.336 300.812 442.375C301.088 442.1 301.363 441.824 301.639 441.549C301.716 441.472 301.79 441.381 301.875 441.313C301.88 441.308 301.723 441.732 301.674 441.813C301.367 442.315 301.043 442.811 300.764 443.313C300.575 443.653 300.711 443.277 300.826 443.111C300.948 442.936 301.103 442.749 301.201 442.563C301.415 442.157 301.866 441.76 302.188 441.438C302.457 441.168 302.793 440.896 302.986 440.563C303.137 440.303 303.363 440.13 303.535 439.889C303.65 439.728 303.781 439.458 303.969 439.375C304.089 439.322 304.1 439.127 304.219 439.035C304.366 438.92 304.447 438.825 304.569 438.684C304.979 438.215 305.297 437.729 305.597 437.184C305.968 436.509 306.407 435.869 306.812 435.215C307.263 434.49 307.786 433.863 308.097 433.063C308.297 432.548 308.598 431.857 308.497 431.299C308.488 431.254 308.263 431.693 308.247 431.736C308.109 432.088 308.023 432.437 307.969 432.809C307.926 433.097 307.869 433.348 307.812 433.629C307.704 434.171 307.453 434.749 307.257 435.267C307.087 435.716 306.911 436.2 306.66 436.611C306.312 437.179 307.14 435.359 307.5 434.799C307.618 434.615 307.682 434.376 307.764 434.174C307.863 433.93 308.097 433.736 308.236 433.514C308.47 433.142 308.773 432.822 308.986 432.438C309.172 432.104 309.388 431.814 309.514 431.451C309.595 431.218 309.923 431.012 310.062 430.799C310.203 430.585 310.342 430.359 310.472 430.139C310.57 429.974 310.586 429.759 310.701 429.597C310.868 429.364 310.998 429.102 311.153 428.861C311.41 428.462 311.702 428.047 311.924 427.625C312.095 427.299 312.287 426.931 312.514 426.625C312.812 426.224 312.989 425.699 313.347 425.34C313.672 425.016 313.896 424.604 314.219 424.281C314.259 424.241 314.438 423.922 314.438 424.094C314.438 424.247 314.357 424.369 314.281 424.504C313.919 425.147 313.687 425.962 313.219 426.535C312.872 426.959 312.694 427.484 312.351 427.903C312.119 428.186 311.913 428.536 311.715 428.847C311.395 429.35 310.923 429.889 310.5 430.313C310.301 430.511 310.1 430.723 309.868 430.882C309.501 431.134 309.155 431.432 308.812 431.715C307.364 432.914 305.784 433.891 304.188 434.875" stroke="white" stroke-width="2" stroke-linecap="round"/>
<path d="M256.844 474.756C256.673 474.841 256.466 474.893 256.312 474.951C256.172 475.005 255.147 475.331 255.774 475.063C256.11 474.919 256.479 474.837 256.844 474.756C257.03 474.715 257.216 474.674 257.396 474.625C257.98 474.466 258.551 474.254 259.125 474.063C260.085 473.743 261.101 473.449 262.007 472.997L262.037 472.982C262.67 472.665 263.43 472.285 263.927 471.755C263.268 472.051 262.64 472.302 261.965 472.549C261.296 472.794 260.66 472.705 259.965 472.816C259.827 472.838 258.927 473.078 258.826 472.91C258.628 472.579 259.442 471.831 259.597 471.667C260.683 470.511 262.123 469.708 263.361 468.722C264.074 468.155 264.599 467.422 265.201 466.75C265.75 466.137 266.278 465.471 266.778 464.816C267.169 464.303 267.491 463.759 267.951 463.299C268.032 463.218 268.335 462.868 268.403 463.111C268.468 463.343 268.406 463.601 268.337 463.823C268.096 464.59 267.742 465.344 267.309 466.021C266.896 466.666 266.381 467.191 265.828 467.688C265.993 467.56 266.156 467.43 266.312 467.299C267.118 466.624 268.056 465.975 268.622 465.069C268.798 464.787 269.448 464.06 269.427 464.657C270.012 464.349 270.582 464.011 271.181 463.729C271.415 463.619 271.666 463.461 271.826 463.729C272.046 464.095 272.171 464.542 272.5 464.833C272.531 464.861 272.564 464.885 272.599 464.905C272.836 464.732 273.072 464.556 273.309 464.379C274.243 463.678 275.238 463.061 276.156 462.347C276.325 462.216 276.435 462.613 276.424 462.715C276.375 463.163 276.078 463.647 275.812 464C275.271 464.718 274.462 464.973 273.601 464.997C273.29 465.005 272.886 465.07 272.599 464.905C271.791 465.494 270.971 466.046 270.062 466.5C269.297 466.883 268.706 467.39 268.076 467.948C268.072 467.954 268.069 467.96 268.066 467.965C267.685 468.635 267.201 469.272 266.562 469.715C266.208 469.961 265.792 470.101 265.424 470.326C264.819 470.696 264.18 471.005 263.528 471.285C263.043 471.493 262.552 471.652 262.035 471.747C261.912 471.769 261.171 471.803 261.229 471.625C261.376 471.173 262.358 470.833 262.736 470.667C263.368 470.388 264.037 470.197 264.66 469.899C265.222 469.631 265.767 469.315 266.312 469.014C266.89 468.695 267.488 468.47 267.986 468.028C268.016 468.001 268.046 467.975 268.076 467.948C268.608 467.014 269.236 465.893 269.41 464.819C269.42 464.757 269.425 464.703 269.427 464.657C269.448 464.06 268.798 464.787 268.622 465.069C268.056 465.975 267.118 466.624 266.312 467.299C266.156 467.43 265.993 467.56 265.828 467.688C265.556 467.932 265.275 468.169 264.993 468.41C264.584 468.759 264.192 469.133 263.736 469.424C263.225 469.749 262.646 469.974 262.133 470.298C262.052 470.36 261.97 470.423 261.889 470.486C261.753 470.592 261.322 470.991 261.326 470.986C261.447 470.866 261.563 470.737 261.691 470.625C261.83 470.503 261.979 470.396 262.133 470.298C262.447 470.061 262.765 469.829 263.059 469.566C263.437 469.228 263.896 469.105 264.299 468.813C264.798 468.449 265.328 468.075 265.828 467.688C266.381 467.191 266.896 466.666 267.309 466.021C267.742 465.344 268.096 464.59 268.337 463.823C268.406 463.601 268.468 463.343 268.403 463.111C268.335 462.868 268.032 463.218 267.951 463.299C267.491 463.759 267.169 464.303 266.778 464.816C266.278 465.471 265.75 466.137 265.201 466.75C264.599 467.422 264.074 468.155 263.361 468.722C262.123 469.708 260.683 470.511 259.597 471.667C259.442 471.831 258.628 472.579 258.826 472.91C258.927 473.078 259.827 472.838 259.965 472.816C260.66 472.705 261.296 472.794 261.965 472.549C262.64 472.302 263.268 472.051 263.927 471.755C263.952 471.728 263.976 471.701 264 471.674C264.295 471.331 264.779 471.011 265.153 470.754C265.669 470.398 266.187 470.163 266.736 469.861C268.183 469.065 269.676 468.322 271.16 467.59C271.945 467.203 272.7 466.786 273.435 466.334C273.676 466.137 273.924 465.955 274.188 465.813C274.519 465.633 274.864 465.358 275.16 465.122C275.765 464.638 276.424 464.223 277.079 463.803C277.16 463.743 277.24 463.683 277.319 463.622C277.602 463.404 277.922 463.196 278.252 463.021C279.222 462.337 280.215 461.69 281.184 461.004C281.442 460.821 281.682 460.6 281.951 460.434C282.522 460.083 283.208 459.909 283.799 459.583C283.93 459.511 285.784 458.45 285.785 458.451C285.8 458.513 285.516 458.73 285.472 458.781C285.221 459.078 284.961 459.326 284.66 459.576C284 460.124 283.26 460.481 282.5 460.861C281.978 461.122 281.452 461.371 280.931 461.632C280.202 461.996 279.578 462.469 278.812 462.764C278.625 462.836 278.437 462.923 278.252 463.021C278.226 463.04 278.2 463.058 278.174 463.076C277.817 463.329 277.449 463.567 277.079 463.803C276.557 464.191 276.024 464.55 275.5 464.938C274.825 465.437 274.139 465.901 273.435 466.334C273.043 466.655 272.671 467.014 272.281 467.309C271.53 467.877 270.732 468.363 270.014 468.972C269.198 469.664 268.202 469.926 267.215 470.281C266.709 470.464 266.224 470.666 265.743 470.91C265.142 471.214 264.553 471.473 263.938 471.75C263.934 471.752 263.931 471.753 263.927 471.755C263.43 472.285 262.67 472.665 262.037 472.982L262.007 472.997C261.101 473.449 260.085 473.743 259.125 474.063C258.551 474.254 257.98 474.466 257.396 474.625C257.216 474.674 257.03 474.715 256.844 474.756Z" fill="white"/>
<path d="M252.562 475.25C252.591 475.474 255.155 474.819 255.542 474.813C255.984 474.805 256.416 474.625 256.844 474.625C256.876 474.625 257.088 474.572 257.035 474.625C256.862 474.798 256.532 474.868 256.312 474.951C256.172 475.005 255.147 475.331 255.774 475.063C256.282 474.845 256.864 474.77 257.396 474.625C257.98 474.466 258.551 474.254 259.125 474.063C260.085 473.743 261.101 473.449 262.007 472.997C262.678 472.661 263.499 472.255 264 471.674C264.295 471.331 264.779 471.011 265.153 470.754C265.669 470.398 266.187 470.163 266.736 469.861C268.183 469.065 269.676 468.322 271.16 467.59C272.698 466.832 274.12 465.958 275.5 464.938C276.105 464.49 276.721 464.082 277.319 463.622C277.76 463.282 278.292 462.965 278.812 462.764C279.578 462.469 280.202 461.996 280.931 461.632C281.452 461.371 281.978 461.122 282.5 460.861C283.26 460.481 284 460.124 284.66 459.576C284.961 459.326 285.221 459.078 285.472 458.781C285.516 458.73 285.8 458.513 285.785 458.451C285.784 458.45 283.93 459.511 283.799 459.583C283.208 459.909 282.522 460.083 281.951 460.434C281.682 460.6 281.442 460.821 281.184 461.004C280.189 461.708 279.169 462.372 278.174 463.076C277.183 463.777 276.105 464.365 275.16 465.122C274.864 465.358 274.519 465.633 274.188 465.813C273.495 466.187 272.911 466.833 272.281 467.309C271.53 467.877 270.732 468.363 270.014 468.972C269.198 469.664 268.202 469.926 267.215 470.281C266.709 470.464 266.224 470.666 265.743 470.91C265.142 471.214 264.553 471.473 263.938 471.75C263.274 472.048 262.644 472.3 261.965 472.549C261.296 472.794 260.66 472.705 259.965 472.816C259.827 472.838 258.927 473.078 258.826 472.91C258.628 472.579 259.442 471.831 259.597 471.667C260.683 470.511 262.123 469.708 263.361 468.722C264.074 468.155 264.599 467.422 265.201 466.75C265.75 466.137 266.278 465.471 266.778 464.816C267.169 464.303 267.491 463.759 267.951 463.299C268.032 463.218 268.335 462.868 268.403 463.111C268.468 463.343 268.406 463.601 268.337 463.823C268.096 464.59 267.742 465.344 267.309 466.021C266.694 466.982 265.849 467.68 264.993 468.41C264.584 468.759 264.192 469.133 263.736 469.424C263.07 469.847 262.29 470.101 261.691 470.625C261.563 470.737 261.447 470.866 261.326 470.986C261.322 470.991 261.753 470.592 261.889 470.486C262.28 470.18 262.688 469.898 263.059 469.566C263.437 469.228 263.896 469.105 264.299 468.813C264.964 468.329 265.683 467.826 266.312 467.299C267.118 466.624 268.056 465.975 268.622 465.069C268.812 464.765 269.551 463.945 269.41 464.819C269.235 465.9 268.6 467.027 268.066 467.965C267.685 468.635 267.201 469.272 266.562 469.715C266.208 469.961 265.792 470.101 265.424 470.326C264.819 470.696 264.18 471.005 263.528 471.285C263.043 471.493 262.552 471.652 262.035 471.747C261.912 471.769 261.171 471.803 261.229 471.625C261.376 471.173 262.358 470.833 262.736 470.667C263.368 470.388 264.037 470.197 264.66 469.899C265.222 469.631 265.767 469.315 266.312 469.014C266.89 468.695 267.488 468.47 267.986 468.028C268.651 467.438 269.261 466.901 270.062 466.5C271.237 465.913 272.265 465.162 273.309 464.379C274.243 463.678 275.238 463.061 276.156 462.347C276.325 462.216 276.435 462.613 276.424 462.715C276.375 463.163 276.078 463.647 275.812 464C275.271 464.718 274.462 464.973 273.601 464.997C273.252 465.006 272.786 465.086 272.5 464.833C272.171 464.542 272.046 464.095 271.826 463.729C271.666 463.461 271.415 463.619 271.181 463.729C270.48 464.059 269.818 464.466 269.125 464.813" stroke="white" stroke-width="2" stroke-linecap="round"/>
<path d="M271.812 468.375C271.828 468.25 272.042 468.096 272.111 467.986C272.23 467.797 272.357 467.643 272.514 467.486C272.769 467.231 273.011 466.979 273.316 466.781C273.563 466.621 273.897 466.468 274.174 466.361C274.529 466.225 274.863 465.921 275.188 465.722C276.002 465.224 276.589 464.473 277.361 463.924C278.045 463.437 278.717 463.033 279.312 462.438" stroke="white" stroke-width="2" stroke-linecap="round"/>
<path d="M318.438 415.902C318.438 415.934 318.438 415.969 318.438 416.007C318.438 416.356 318.268 416.519 318.125 416.812C317.897 417.281 317.925 417.935 317.639 418.347C317.401 418.69 317.74 417.359 317.778 417.25C317.94 416.78 318.193 416.341 318.438 415.902C318.533 415.729 318.628 415.556 318.715 415.382C318.865 415.083 318.984 414.736 319.111 414.424C319.332 413.879 319.547 413.202 319.653 412.625C319.843 411.589 319.99 410.561 320.125 409.517C320.178 409.104 320.203 408.635 320.326 408.236C320.422 407.926 320.484 408.791 320.528 408.931C320.675 409.393 320.688 409.825 320.688 410.312C320.688 410.369 320.688 410.427 320.689 410.484C320.741 410.314 320.782 410.143 320.806 409.972C320.967 408.801 320.888 407.569 320.875 406.389C320.873 406.175 320.848 405.949 320.803 405.727C320.699 405.525 320.597 405.324 320.5 405.125C320.315 404.744 320.446 404.737 320.594 405.066C320.685 405.269 320.755 405.496 320.803 405.727C321.079 406.267 321.362 406.816 321.562 407.375C321.611 407.51 321.65 407.645 321.681 407.779C321.856 407.376 321.965 406.92 322.053 406.458C322.021 406.473 322 406.451 322 406.361C322 406.181 322.107 406.002 322.165 405.825C322.211 405.558 322.257 405.296 322.312 405.049C322.579 403.863 323.006 402.706 323.174 401.5C323.222 401.151 323.355 400.815 323.373 400.462C323.374 400.422 323.375 400.381 323.375 400.34C323.375 400.157 323.376 400.388 323.375 400.417C323.375 400.432 323.374 400.447 323.373 400.462C323.366 400.742 323.332 401.01 323.281 401.288C323.13 402.111 322.938 402.907 322.719 403.712C322.536 404.381 322.338 405.065 322.188 405.743C322.181 405.77 322.174 405.798 322.165 405.825C322.129 406.034 322.093 406.247 322.053 406.458C321.965 406.92 321.856 407.376 321.681 407.779C321.808 408.321 321.812 408.865 321.812 409.438C321.812 409.643 321.82 410.175 321.562 410.267C321.355 410.342 321.372 409.21 321.375 409.049C321.381 408.656 321.454 408.256 321.625 407.903C321.645 407.862 321.663 407.821 321.681 407.779C321.65 407.645 321.611 407.51 321.562 407.375C321.362 406.816 321.079 406.267 320.803 405.727C320.848 405.949 320.873 406.175 320.875 406.389C320.888 407.569 320.967 408.801 320.806 409.972C320.782 410.143 320.741 410.314 320.689 410.484C320.698 410.885 320.725 411.301 320.639 411.688C320.553 412.076 320.424 412.433 320.309 412.816C320.283 412.903 320.174 413.102 320.139 412.896C320.077 412.53 320.154 412.129 320.25 411.778C320.366 411.354 320.559 410.92 320.689 410.484C320.688 410.427 320.688 410.369 320.688 410.312C320.688 409.825 320.675 409.393 320.528 408.931C320.484 408.791 320.422 407.926 320.326 408.236C320.203 408.635 320.178 409.104 320.125 409.517C319.99 410.561 319.843 411.589 319.653 412.625C319.547 413.202 319.332 413.879 319.111 414.424C318.984 414.736 318.865 415.083 318.715 415.382C318.628 415.556 318.533 415.729 318.438 415.902Z" fill="white"/>
<path d="M315.875 418.438C316.041 418.554 316.963 417.491 317.122 417.312C317.517 416.868 317.831 416.354 318.188 415.878C318.448 415.531 318.438 415.628 318.438 416.007C318.438 416.356 318.268 416.519 318.125 416.812C317.897 417.281 317.925 417.935 317.639 418.347C317.401 418.69 317.74 417.359 317.778 417.25C318.004 416.595 318.406 416.001 318.715 415.382C318.865 415.083 318.984 414.736 319.111 414.424C319.332 413.879 319.547 413.202 319.653 412.625C319.843 411.589 319.99 410.561 320.125 409.517C320.178 409.104 320.203 408.635 320.326 408.236C320.422 407.926 320.484 408.791 320.528 408.931C320.675 409.393 320.688 409.825 320.688 410.312C320.688 410.765 320.737 411.246 320.639 411.688C320.553 412.076 320.424 412.433 320.309 412.816C320.283 412.903 320.174 413.102 320.139 412.896C320.077 412.53 320.154 412.129 320.25 411.778C320.412 411.188 320.722 410.578 320.806 409.972C320.967 408.801 320.888 407.569 320.875 406.389C320.87 405.954 320.773 405.465 320.594 405.066C320.446 404.737 320.315 404.744 320.5 405.125C320.856 405.858 321.287 406.607 321.562 407.375C321.806 408.053 321.812 408.722 321.812 409.438C321.812 409.643 321.82 410.175 321.562 410.267C321.355 410.342 321.372 409.21 321.375 409.049C321.381 408.656 321.454 408.256 321.625 407.903C322.031 407.061 322.108 405.957 322.312 405.049C322.579 403.863 323.006 402.706 323.174 401.5C323.224 401.136 323.367 400.786 323.375 400.417C323.376 400.388 323.375 400.157 323.375 400.34C323.375 400.665 323.34 400.97 323.281 401.288C323.13 402.111 322.938 402.907 322.719 403.712C322.536 404.381 322.338 405.065 322.188 405.743C322.142 405.946 322 406.153 322 406.361C322 406.672 322.256 406.175 322.285 406.118C322.741 405.206 323.017 404.164 323.361 403.201C323.523 402.747 323.768 402.298 323.816 401.816C323.836 401.611 323.91 401.316 323.986 401.125C324.075 400.903 324.041 400.55 324.09 400.309C324.435 398.635 324.572 396.907 324.826 395.222C324.908 394.681 325 394.153 325.076 393.611C325.168 392.962 325.375 392.281 325.375 391.625" stroke="white" stroke-width="2" stroke-linecap="round"/>
<path d="M324.375 393.063C325.307 391.976 325.65 390.362 326.094 389.031C326.483 387.865 326.625 386.481 326.625 385.253C326.625 384.839 326.852 381.889 327.094 381.889C327.202 381.889 327.312 382.721 327.312 382.847C327.312 383.406 327.216 383.962 327.094 384.507C326.493 387.176 326.164 389.918 325.736 392.611C325.559 393.728 325.351 394.803 325 395.875C324.708 396.767 324.509 397.803 323.812 398.5" stroke="white" stroke-width="2" stroke-linecap="round"/>
<path d="M222.389 463.014C222.617 463.143 222.85 463.266 223.094 463.378C223.818 463.713 224.595 464.042 225.236 464.535C225.564 464.787 225.893 465.011 226.215 465.274C226.393 465.42 226.532 465.584 226.67 465.751C227.452 466.292 228.209 466.905 229.056 467.34C229.707 467.675 230.317 468.094 230.93 468.493C231.137 468.598 231.348 468.694 231.562 468.778L231.595 468.79C231.852 468.89 232.117 468.993 232.361 469.125C232.638 469.275 232.945 469.292 233.215 469.441C233.399 469.542 233.727 469.582 233.875 469.715C234.027 469.852 234.192 469.952 234.375 470.049C234.724 470.232 235.066 470.467 235.424 470.625C235.884 470.828 236.363 470.976 236.816 471.188C237.105 471.322 237.393 471.458 237.682 471.594C238.013 471.667 238.332 471.843 238.628 471.972C239.198 472.221 239.759 472.523 240.312 472.831C241.208 473.246 242.108 473.652 243.014 474.035C243.434 474.212 243.85 474.396 244.27 474.562C244.564 474.654 244.882 474.753 245.17 474.877C245.33 474.924 245.492 474.967 245.656 475.003C245.997 475.079 246.346 475.213 246.688 475.299C247.097 475.401 247.564 475.425 247.941 475.59C248.211 475.708 248.537 475.725 248.816 475.847C248.911 475.889 249.504 476.225 249.312 476.326C249.125 476.425 248.868 476.5 248.656 476.5C248.411 476.5 248.214 476.261 247.986 476.174C247.759 476.086 247.539 475.877 247.312 475.764C247.056 475.635 246.764 475.56 246.528 475.41C246.255 475.236 245.881 475.278 245.597 475.097C245.469 475.015 245.324 474.943 245.17 474.877C244.865 474.787 244.566 474.679 244.27 474.562C244.164 474.529 244.062 474.497 243.965 474.465C243.491 474.31 243.062 474.066 242.59 473.903C242.079 473.726 241.601 473.545 241.128 473.285C240.858 473.136 240.586 472.983 240.312 472.831C239.433 472.423 238.558 472.007 237.682 471.594C237.625 471.581 237.568 471.572 237.51 471.566C237.329 471.548 237.182 471.448 237 471.438C236.86 471.43 236.562 471.272 236.854 471.451C237.222 471.677 237.582 471.879 237.906 472.153C238.221 472.419 238.509 472.653 238.875 472.826C239.102 472.934 239.382 473.037 239.625 473.111C239.888 473.192 240.083 473.383 240.344 473.441C240.377 473.448 240.44 473.484 240.427 473.528C240.399 473.627 239.942 473.405 239.903 473.389C239.571 473.252 239.194 473.13 238.889 472.938C238.75 472.85 238.589 472.871 238.434 472.809C238.149 472.695 237.858 472.588 237.59 472.438C237.189 472.213 236.647 472.124 236.281 471.84C235.945 471.579 235.679 471.23 235.264 471.076C235.02 470.986 234.734 470.847 234.5 470.736C234.219 470.603 233.901 470.429 233.656 470.222C233.148 469.792 232.515 469.432 231.938 469.111C231.596 468.922 231.263 468.71 230.93 468.493C230.298 468.175 229.692 467.783 229.062 467.469C228.324 467.099 227.59 466.715 227 466.125C226.879 466.004 226.774 465.876 226.67 465.751C226.656 465.741 226.642 465.732 226.628 465.722C225.978 465.275 225.218 465.022 224.559 464.594C223.882 464.154 223.2 463.825 222.625 463.25L222.389 463.014Z" fill="white"/>
<path d="M217 458.875C217 459.168 217.439 459.427 217.576 459.688C217.689 459.901 217.851 460.019 218.031 460.16C218.488 460.515 219.024 460.649 219.438 461.062C219.864 461.489 220.514 461.873 221.031 462.188C221.716 462.604 222.356 463.038 223.094 463.378C223.818 463.713 224.595 464.042 225.236 464.535C225.564 464.787 225.893 465.011 226.215 465.274C226.528 465.53 226.718 465.843 227 466.125C227.59 466.715 228.324 467.099 229.062 467.469C229.898 467.887 230.692 468.439 231.562 468.778C231.83 468.882 232.107 468.988 232.361 469.125C232.638 469.275 232.945 469.292 233.215 469.441C233.399 469.542 233.727 469.582 233.875 469.715C234.027 469.852 234.192 469.952 234.375 470.049C234.724 470.232 235.066 470.467 235.424 470.625C235.884 470.828 236.363 470.976 236.816 471.188C238.874 472.148 240.926 473.153 243.014 474.035C243.888 474.404 244.739 474.8 245.656 475.003C245.997 475.079 246.346 475.213 246.688 475.299C247.097 475.401 247.564 475.425 247.941 475.59C248.211 475.708 248.537 475.725 248.816 475.847C248.911 475.889 249.504 476.225 249.312 476.326C249.125 476.425 248.868 476.5 248.656 476.5C248.411 476.5 248.214 476.261 247.986 476.174C247.759 476.086 247.539 475.877 247.312 475.764C247.056 475.635 246.764 475.56 246.528 475.41C246.255 475.236 245.881 475.278 245.597 475.097C245.14 474.807 244.475 474.632 243.965 474.465C243.491 474.31 243.062 474.066 242.59 473.903C242.079 473.726 241.601 473.545 241.128 473.285C240.311 472.835 239.479 472.344 238.628 471.972C238.282 471.821 237.902 471.605 237.51 471.566C237.329 471.548 237.182 471.448 237 471.438C236.86 471.43 236.562 471.272 236.854 471.451C237.222 471.677 237.582 471.879 237.906 472.153C238.221 472.419 238.509 472.653 238.875 472.826C239.102 472.934 239.382 473.037 239.625 473.111C239.888 473.192 240.083 473.383 240.344 473.441C240.377 473.448 240.44 473.484 240.427 473.528C240.399 473.627 239.942 473.405 239.903 473.389C239.571 473.252 239.194 473.13 238.889 472.938C238.75 472.85 238.589 472.871 238.434 472.809C238.149 472.695 237.858 472.588 237.59 472.438C237.189 472.213 236.647 472.124 236.281 471.84C235.945 471.579 235.679 471.23 235.264 471.076C235.02 470.986 234.734 470.847 234.5 470.736C234.219 470.603 233.901 470.429 233.656 470.222C233.148 469.792 232.515 469.432 231.938 469.111C230.968 468.573 230.06 467.857 229.056 467.34C228.194 466.897 227.425 466.27 226.628 465.722C225.978 465.275 225.218 465.022 224.559 464.594C223.882 464.154 223.2 463.825 222.625 463.25C222.354 462.979 222.083 462.708 221.812 462.438C221.625 462.25 221.44 462.06 221.25 461.875C221.118 461.747 220.934 461.678 220.875 461.5" stroke="white" stroke-width="2" stroke-linecap="round"/>
<path d="M197.093 432.141C197.088 432.084 197.083 432.028 197.077 431.972C197.067 431.884 197.07 432 197.093 432.141Z" fill="white"/>
<path d="M198.688 439.313C198.488 439.233 197.177 438.682 197.129 439.066C197.066 439.566 197.126 438.059 197.125 437.556C197.124 436.33 197.122 434.699 197.111 433.472C197.107 432.972 197.133 432.469 197.077 431.972C197.059 431.814 197.084 432.316 197.188 432.438C197.418 432.708 197.443 433.258 197.504 433.59C197.554 433.868 197.812 434.22 197.625 434.5" stroke="white" stroke-width="2" stroke-linecap="round"/>
<path d="M195.25 435.563C194.141 434.331 192.704 433.388 191.701 432.063C191.416 431.685 191.207 431.239 191 430.813C190.893 430.591 190.788 430.387 190.66 430.174C190.609 430.089 190.145 429.618 190.326 429.875C190.6 430.263 190.944 430.755 191.125 431.202C191.326 431.698 191.582 432.212 191.75 432.715C191.866 433.064 191.843 433.455 192.014 433.785C192.153 434.053 192.369 434.288 192.514 434.563C192.702 434.918 193.039 435.161 193.361 435.375C193.675 435.585 194.07 435.886 194.299 436.188C194.785 436.83 195.24 437.476 195.764 438.09C196.584 439.053 197.542 439.792 198.424 440.674C198.727 440.977 199.057 441.314 199.264 441.688C199.329 441.804 199.452 441.888 199.563 441.952C199.804 442.091 199.941 442.391 200.111 442.597C200.383 442.927 200.763 443.145 201.035 443.486C201.551 444.135 202.072 444.787 202.5 445.5" stroke="white" stroke-width="2" stroke-linecap="round"/>
<path d="M174.683 389.458C174.659 389.298 174.654 389.123 174.656 388.948C174.689 389.116 174.665 389.291 174.683 389.458C174.689 389.498 174.696 389.537 174.705 389.575C174.739 389.688 174.877 389.94 174.875 389.938C174.792 389.848 174.738 389.722 174.705 389.575C174.704 389.571 174.702 389.567 174.701 389.562C174.693 389.528 174.687 389.493 174.683 389.458Z" fill="white"/>
<path d="M173.688 380.75C173.391 380.787 173.612 381.745 173.674 381.924C173.91 382.606 174.022 383.275 174.139 383.986C174.187 384.279 174.24 384.705 174.344 384.976C174.503 385.391 174.381 385.825 174.451 386.25C174.509 386.598 174.688 386.959 174.688 387.312C174.688 387.6 174.688 387.887 174.688 388.174C174.688 388.637 174.542 389.581 174.875 389.938C174.877 389.94 174.728 389.667 174.701 389.562C174.65 389.359 174.698 389.139 174.653 388.931C174.523 388.339 174.422 387.773 174.215 387.201C173.896 386.318 174.213 385.202 174.076 384.278C174 383.763 173.91 383.278 173.719 382.788C173.625 382.549 173.5 382.458 173.5 382.188" stroke="white" stroke-width="2" stroke-linecap="round"/>
<path d="M182.375 405.813C181.565 404.794 180.741 403.669 180.156 402.5C180.053 402.294 179.959 401.978 179.764 401.84C179.512 401.663 179.16 401.595 178.889 401.438C178.604 401.272 178.225 401.093 178.035 400.816C177.909 400.633 177.75 400.437 177.594 400.281C177.32 400.008 176.843 399.941 176.576 399.674C176.358 399.455 176.437 399.122 176.437 398.816C176.437 398.646 176.363 398.467 176.298 398.313C176.2 398.08 176.175 397.794 176.139 397.542C176.037 396.839 175.877 396.137 175.75 395.438C175.687 395.093 175.539 394.775 175.472 394.431C175.394 394.03 175.386 393.634 175.281 393.24C175.032 392.298 174.661 391.241 174.625 390.264C174.615 390.01 174.626 390.37 174.663 390.444C174.86 390.839 174.942 391.215 175.069 391.632C175.336 392.509 175.572 393.407 175.84 394.278C176.046 394.945 176.116 395.657 176.347 396.316C176.54 396.866 176.365 397.448 176.514 397.986C176.58 398.226 176.64 399.092 176.656 398.358C176.696 396.605 176.682 394.851 176.701 393.097C176.706 392.636 176.669 391.267 176.778 391.715C176.818 391.881 176.831 392.05 176.875 392.215C176.976 392.595 177.06 392.963 177.111 393.361C177.171 393.828 177.101 394.527 177.375 394.938" stroke="white" stroke-width="2" stroke-linecap="round"/>
<path d="M177 398.812C177 399.257 177.14 399.679 177.184 400.122C177.215 400.436 177.075 400.951 177.344 401.16C177.548 401.319 177.567 401.802 177.656 402.031C177.807 402.417 177.967 402.768 178.097 403.16C178.107 403.19 178.337 403.599 178.181 403.521C177.9 403.381 177.736 403.01 177.562 402.764C177.342 402.451 177.188 402.19 177.188 401.799C177.188 401.434 177.097 401.102 177.014 400.75C176.932 400.402 176.75 400.05 176.75 399.688" stroke="white" stroke-width="2" stroke-linecap="round"/>
<path d="M185.312 421.688C185.046 421.688 185.604 422.52 185.719 422.66C185.812 422.774 185.876 422.957 185.937 423.094C186.04 423.325 186.276 423.526 186.451 423.701C187.149 424.399 187.477 425.135 187.875 426.031C188.039 426.4 188.283 426.727 188.465 427.09C188.778 427.715 189.114 428.344 189.469 428.944C189.805 429.514 190.217 429.842 190.687 430.312C191.163 430.788 191.564 431.378 191.937 431.938" stroke="white" stroke-width="2" stroke-linecap="round"/>
<path d="M188.753 426.191C188.788 426.219 188.823 426.246 188.86 426.273C188.932 426.535 188.997 426.799 189.062 427.062C189.192 427.582 189.386 428.022 189.625 428.5C189.713 428.675 189.852 428.852 189.656 428.656C189.344 428.344 188.944 428.145 188.701 427.764C188.468 427.397 188.117 427.128 187.906 426.753C187.722 426.425 187.624 426.066 187.438 425.736C187.212 425.337 186.985 424.968 186.734 424.601C186.698 424.578 186.662 424.555 186.625 424.531C186.432 424.407 185.735 423.943 185.75 423.688C185.761 423.493 186.478 424.239 186.531 424.312C186.601 424.409 186.668 424.505 186.734 424.601C187.023 424.784 187.305 424.955 187.59 425.153C188.016 425.448 188.349 425.867 188.753 426.191Z" fill="white"/>
<path d="M190 426.875C189.57 426.737 189.107 426.474 188.753 426.191C188.349 425.867 188.016 425.448 187.59 425.153C187.269 424.93 186.953 424.742 186.625 424.531C186.432 424.407 185.735 423.943 185.75 423.688C185.761 423.493 186.478 424.239 186.531 424.312C186.866 424.777 187.153 425.233 187.438 425.736C187.624 426.066 187.722 426.425 187.906 426.753C188.117 427.128 188.468 427.397 188.701 427.764C188.944 428.145 189.344 428.344 189.656 428.656C189.852 428.852 189.713 428.675 189.625 428.5C189.386 428.022 189.192 427.582 189.062 427.062C188.864 426.269 188.673 425.466 188.278 424.747C187.97 424.187 187.44 424.049 187.014 423.639C186.642 423.28 186.389 422.829 186.094 422.406C185.742 421.901 185.34 421.428 184.986 420.938C184.451 420.196 184.005 419.369 183.5 418.611C182.988 417.844 182.407 417.062 182.062 416.201C181.862 415.7 181.957 415.251 181.861 414.736C181.8 414.409 181.846 414.159 181.594 413.906C181.367 413.68 181.308 413.505 181.201 413.174C181.017 412.599 180.881 412.046 180.674 411.486C180.563 411.189 180.387 410.922 180.281 410.625C180.196 410.387 179.965 410.132 179.938 409.875C179.884 409.367 179.553 408.897 179.389 408.424C179.129 407.673 179.049 406.849 178.688 406.125C178.335 405.419 178.31 404.556 178.062 403.812" stroke="white" stroke-width="2" stroke-linecap="round"/>
<path d="M328.5 381L328 386L327.5 390L325 402L322.5 410L319.5 417L318 420L316.5 423L315.5 425L314 427.5L312 430.5L309 435L306 439L303.5 442L296.109 449.891L291 455L286.5 459L280.5 463.5L274.5 467.5L269.5 470.5V470.5C265.173 472.83 260.67 474.815 256.032 476.439L253 477.5L250.5 478" stroke="white"/>
<path d="M215.338 457.658C215.508 457.884 215.675 458.113 215.875 458.313C216.15 458.587 216.408 458.71 216.722 458.91C217.092 459.145 217.319 459.574 217.687 459.799C217.963 459.967 217.403 459.754 217.312 459.688C217.107 459.538 216.929 459.366 216.75 459.188C216.231 458.668 215.585 458.273 215.062 457.75C214.848 457.536 214.618 457.368 214.403 457.153C214.272 457.022 214.129 456.904 214.048 456.736C214.047 456.732 214.045 456.728 214.042 456.725C213.746 456.515 213.456 456.299 213.187 456.059C213.132 456.009 213.44 456.256 213.5 456.313C213.644 456.448 213.949 456.553 214.042 456.725C214.403 456.98 214.773 457.225 215.121 457.493C215.193 457.549 215.266 457.604 215.338 457.658Z" fill="white"/>
<path d="M212.75 451.375C211.785 451.454 210.916 451.343 210.031 450.934C209.443 450.663 208.868 450.367 208.264 450.125C208.052 450.04 207.361 449.719 207.316 450.125C207.279 450.453 207.408 450.688 207.59 450.951C208.023 451.577 208.7 451.825 209.236 452.361C209.477 452.602 209.853 452.84 210.028 453.125C210.269 453.519 210.624 453.837 211.003 454.097C211.817 454.657 212.403 455.523 213.285 456.004C213.618 456.186 213.916 456.436 214.25 456.611C214.563 456.776 214.862 457.074 215.09 457.344C215.358 457.661 215.58 458.018 215.875 458.313C216.15 458.587 216.408 458.71 216.722 458.91C217.092 459.145 217.319 459.574 217.687 459.799C217.963 459.967 217.403 459.754 217.312 459.688C217.107 459.538 216.929 459.366 216.75 459.188C216.231 458.668 215.585 458.273 215.062 457.75C214.848 457.536 214.618 457.368 214.403 457.153C214.272 457.022 214.129 456.904 214.048 456.736C213.962 456.558 213.647 456.451 213.5 456.313C213.44 456.256 213.132 456.009 213.187 456.059C213.783 456.592 214.487 457.005 215.121 457.493C215.579 457.845 216.051 458.182 216.486 458.563C216.877 458.905 217.206 459.323 217.597 459.674C218.882 460.826 220.234 461.908 221.594 462.965C222.327 463.536 223.237 463.754 224.041 464.198C224.548 464.478 225.037 464.889 225.486 465.25C226.041 465.697 226.612 466.13 227.156 466.59C227.703 467.053 228.453 467.269 229.09 467.576C230.333 468.176 231.603 468.714 232.847 469.309C233.434 469.59 234.003 469.854 234.576 470.16C235.381 470.59 236.247 470.864 237.062 471.264C237.985 471.717 238.924 472.112 239.875 472.5C240.453 472.736 240.954 473.077 241.5 473.375" stroke="white" stroke-width="2" stroke-linecap="round"/>
<path d="M243.375 473.688C243.309 473.643 242.745 473.378 242.893 473.507C243.204 473.779 243.699 473.971 244.077 474.139C244.513 474.333 244.89 474.597 245.313 474.809C245.716 475.011 246.182 475.148 246.566 475.378C246.817 475.529 247.125 475.729 247.424 475.75C247.669 475.768 247.886 475.964 248.125 476C248.506 476.057 248.872 476.408 249.219 476.562C249.509 476.692 249.765 476.938 250.094 476.938C250.247 476.938 250.358 477.021 250.514 476.986C250.935 476.893 251.328 476.631 251.75 476.514C252.161 476.4 252.58 476.335 252.972 476.156C253.477 475.927 254 475.636 254.514 475.438C254.791 475.33 255.112 475.297 255.403 475.25C255.681 475.205 255.899 475.016 256.188 475C256.545 474.981 257.114 474.858 257.441 474.715C258.047 474.45 258.635 474.088 259.271 473.903C260.141 473.65 261.086 473.553 261.927 473.222C262.487 473.002 263.158 472.779 263.591 472.347C263.861 472.077 264.221 471.873 264.563 471.688C265.022 471.438 265.477 471.074 265.882 470.743C266.414 470.308 267.085 470.218 267.625 469.812" stroke="white" stroke-width="2" stroke-linecap="round"/>
<path d="M267.188 468.938C267.781 469.252 268.645 468.975 269.264 468.799C269.877 468.624 270.486 468.424 271.09 468.222C271.521 468.079 272.032 467.932 272.375 467.625C272.715 467.32 273.123 466.977 273.503 466.715C273.933 466.42 274.438 466.23 274.882 465.958C275.037 465.864 275.134 465.702 275.281 465.601C275.387 465.527 275.516 465.522 275.625 465.438C275.923 465.206 276.261 465.027 276.562 464.799C277.155 464.35 277.85 463.974 278.399 463.472C278.972 462.95 279.563 462.527 280.188 462.076C281.29 461.28 282.301 460.361 283.41 459.562C283.688 459.362 283.912 459.105 284.188 458.906C284.484 458.692 284.813 458.488 285.076 458.236C285.692 457.648 286.564 457.408 287.215 456.844C288.105 456.073 288.58 454.949 289.576 454.285C290.089 453.943 290.6 453.47 291.062 453.059C291.615 452.568 292.318 452.084 292.688 451.438" stroke="white" stroke-width="2" stroke-linecap="round"/>
<path d="M325.812 379.937C326.238 379.619 326.997 380.612 327.236 380.861C327.522 381.159 327.625 381.663 327.625 382.062C327.625 383.19 327.394 384.358 327.094 385.437C326.942 385.984 327.011 386.585 326.844 387.121C326.695 387.598 326.562 388.156 326.562 388.656C326.562 388.959 326.443 389.252 326.389 389.549C326.333 389.858 326.366 390.187 326.281 390.493C326.175 390.877 326.326 392.097 325.875 392.187" stroke="white" stroke-width="2" stroke-linecap="round"/>
<path d="M325.466 393.51C325.529 393.397 325.625 393.236 325.625 393.125C325.625 392.859 325.553 393.121 325.466 393.51Z" fill="white"/>
<path d="M321.062 410.062C321.086 410.434 321.332 409.503 321.375 409.434C321.561 409.137 321.555 408.702 321.719 408.375C322.138 407.536 322.783 406.645 322.878 405.691C322.916 405.317 323.048 404.925 323.139 404.562C323.238 404.165 323.473 403.694 323.5 403.298C323.543 402.674 323.91 402.081 323.938 401.451C323.955 401.065 324.092 400.628 324.174 400.25C324.28 399.759 324.243 399.224 324.344 398.722C324.447 398.205 324.556 397.642 324.622 397.121C324.681 396.645 324.812 396.18 324.812 395.698C324.812 395.319 324.932 394.767 325.062 394.41C325.168 394.12 325.297 393.836 325.438 393.562C325.494 393.452 325.625 393.254 325.625 393.125C325.625 392.6 325.344 394.137 325.215 394.646C325.011 395.452 325.01 396.308 324.889 397.125C324.815 397.623 324.925 398.243 324.5 398.562" stroke="white" stroke-width="2" stroke-linecap="round"/>
<path d="M308.75 433.062C308.768 433.21 309.189 432.744 309.253 432.688C309.49 432.48 309.737 432.296 309.938 432.049C310.254 431.658 310.516 431.103 310.639 430.625C310.782 430.07 311.355 429.54 311.639 429.049C311.967 428.481 312.312 427.908 312.688 427.372C313.086 426.802 313.281 426.084 313.656 425.5C313.934 425.068 314.15 424.614 314.434 424.188C314.722 423.755 314.793 423.192 315.097 422.778C315.395 422.372 315.656 421.881 315.889 421.438C316.125 420.99 316.279 420.517 316.5 420.062C316.707 419.637 316.98 419.239 317.188 418.812C317.418 418.338 317.637 417.851 317.875 417.375C318.084 416.956 318.284 416.484 318.535 416.09C318.826 415.632 319.056 415.129 319.281 414.628C319.513 414.114 319.814 413.623 319.938 413.069C320.045 412.583 320.3 412.106 320.438 411.625C320.6 411.058 320.625 410.47 320.625 409.875" stroke="white" stroke-width="2" stroke-linecap="round"/>
<path d="M289.375 453.562C289.406 453.814 290.048 453.407 290.111 453.361C290.26 453.254 290.368 453.079 290.562 453.062C290.75 453.047 290.852 452.951 291 452.844C291.581 452.424 292.108 452.017 292.625 451.5C292.931 451.194 293.235 451.005 293.562 450.764C293.975 450.46 294.359 450.051 294.722 449.688C295.163 449.247 295.498 448.634 295.903 448.156C296.341 447.638 296.794 447.134 297.247 446.625C298.102 445.663 299.098 444.972 300.059 444.132C300.517 443.731 300.898 443.367 301.264 442.875C301.717 442.266 302.119 441.641 302.59 441.049C302.968 440.574 303.456 440.131 303.781 439.625C304.072 439.173 304.54 438.834 304.837 438.378C305.536 437.302 306.367 436.31 307.25 435.375C307.649 434.953 307.919 434.416 308.312 434C308.593 433.704 308.812 433.159 308.812 432.75" stroke="white" stroke-width="2" stroke-linecap="round"/>
<path d="M250.648 477.605C250.634 477.62 250.621 477.633 250.621 477.655C250.621 477.678 250.617 477.701 250.617 477.725C250.617 477.744 250.611 477.753 250.6 477.768C250.577 477.797 250.568 477.826 250.552 477.859C250.539 477.884 250.542 477.912 250.529 477.936C250.522 477.948 250.52 477.957 250.52 477.971C250.52 477.982 250.508 477.992 250.508 478.004" stroke="white" stroke-linecap="round"/>
<path d="M240.391 473.031C240.492 473.281 240.547 473.527 240.688 473.758C240.766 473.888 240.896 473.981 241.01 474.079C241.127 474.18 241.245 474.292 241.37 474.384C241.448 474.441 241.554 474.452 241.642 474.486C241.832 474.56 242.022 474.632 242.214 474.7C242.325 474.739 242.44 474.755 242.554 474.785C242.803 474.849 243.038 474.957 243.29 475.012C243.497 475.058 243.698 475.126 243.905 475.175C244.092 475.22 244.28 475.247 244.47 475.273C244.53 475.282 244.588 475.293 244.644 475.316C244.775 475.369 244.907 475.42 245.038 475.472C245.248 475.555 245.474 475.589 245.684 475.672C245.813 475.722 245.952 475.777 246.09 475.793C246.173 475.803 246.247 475.808 246.328 475.828" stroke="white" stroke-linecap="round"/>
<path d="M205.453 449.828C205.461 449.853 205.488 449.867 205.507 449.882C205.588 449.945 205.666 450.012 205.744 450.079C205.862 450.179 205.991 450.264 206.109 450.363C206.263 450.491 206.369 450.664 206.547 450.766" stroke="white" stroke-linecap="round"/>
<path d="M199.108 442.717C199.13 442.73 199.152 442.744 199.174 442.758C199.274 442.884 199.376 443.008 199.479 443.132C199.573 443.223 199.656 443.307 199.714 443.37C199.897 443.571 200.048 443.798 200.24 443.99C200.371 444.121 200.205 443.96 200.158 443.908C199.927 443.652 199.7 443.395 199.479 443.132C199.075 442.737 198.464 442.184 198.753 442.41C198.88 442.508 198.966 442.633 199.108 442.717Z" fill="white"/>
<path d="M201.141 443.984C200.947 443.882 200.786 443.716 200.599 443.601C200.293 443.412 199.976 443.246 199.659 443.078C199.466 442.976 199.296 442.828 199.108 442.717C198.966 442.633 198.88 442.508 198.753 442.41C198.396 442.132 199.409 443.035 199.714 443.37C199.897 443.571 200.048 443.798 200.24 443.99C200.371 444.121 200.205 443.96 200.158 443.908C199.677 443.376 199.212 442.834 198.79 442.254C198.695 442.123 198.564 442.03 198.45 441.918C198.352 441.823 198.245 441.733 198.126 441.666C198.014 441.603 197.905 441.544 197.813 441.452C197.709 441.348 197.63 441.217 197.549 441.095C197.396 440.868 197.258 440.617 197.062 440.422" stroke="white" stroke-linecap="round"/>
</svg>
